<svg xmlns="http://www.w3.org/2000/svg" viewBox="0 0 256 256" role="img" aria-label="Domus-AI">
  <defs>
    <linearGradient id="gold" x1="0%" y1="0%" x2="100%" y2="100%">
      <stop offset="0%" stop-color="#dfb05a"></stop>
      <stop offset="55%" stop-color="#c8922a"></stop>
      <stop offset="100%" stop-color="#a87915"></stop>
    </linearGradient>
    <linearGradient id="goldSoft" x1="0%" y1="0%" x2="100%" y2="100%">
      <stop offset="0%" stop-color="#dfb05a" stop-opacity="0.95"></stop>
      <stop offset="100%" stop-color="#c8922a" stop-opacity="0.95"></stop>
    </linearGradient>
    <radialGradient id="sparkGlow" cx="50%" cy="50%" r="50%">
      <stop offset="0%" stop-color="#dfb05a" stop-opacity="0.55"></stop>
      <stop offset="60%" stop-color="#c8922a" stop-opacity="0.12"></stop>
      <stop offset="100%" stop-color="#c8922a" stop-opacity="0"></stop>
    </radialGradient>
  </defs>

  <circle cx="128" cy="74" r="42" fill="url(#sparkGlow)"></circle>

  <g transform="translate(128 74)" fill="url(#gold)">
    <path d="M 0 -26 C 3 -10 10 -3 26 0 C 10 3 3 10 0 26 C -3 10 -10 3 -26 0 C -10 -3 -3 -10 0 -26 Z" opacity="0.95"></path>
    <g transform="translate(22 -18) scale(0.38)">
      <path d="M 0 -22 C 2 -8 8 -2 22 0 C 8 2 2 8 0 22 C -2 8 -8 2 -22 0 C -8 -2 -2 -8 0 -22 Z" opacity="0.75"></path>
    </g>
    <g transform="translate(-20 16) scale(0.26)">
      <path d="M 0 -22 C 2 -8 8 -2 22 0 C 8 2 2 8 0 22 C -2 8 -8 2 -22 0 C -8 -2 -2 -8 0 -22 Z" opacity="0.6"></path>
    </g>
  </g>

  <path d="M 68 186 L 68 116 L 128 70 L 188 116 L 188 186 Z" fill="none" stroke="url(#gold)" stroke-width="10" stroke-linejoin="round" stroke-linecap="round"></path>

  <path d="M 100 186 L 100 148 Q 100 128 128 128 Q 156 128 156 148 L 156 186" fill="none" stroke="#f0ead8" stroke-width="10" stroke-linejoin="round" stroke-linecap="round"></path>
</svg>
